<?xml version="1.0" encoding="UTF-8"?>
<svg id="Layer_1" data-name="Layer 1" xmlns="http://www.w3.org/2000/svg" viewBox="0 0 1080 112.82">
  <defs>
    <style>
      .cls-1 {
        fill: #25408f;
      }

      .cls-2 {
        fill: #231f20;
      }

      .cls-3 {
        fill: none;
        stroke: #231f20;
      }

      .cls-4 {
        fill: #72bf44;
      }
    </style>
  </defs>
  <path class="cls-1" d="M24.85,32.51v20.37h-4.95v-20.37h4.95Z"/>
  <polygon class="cls-4" points="93.77 12.67 56.44 87.33 131.1 87.33 93.77 12.67"/>
  <path class="cls-2" d="M158.15,34.61v16.85h1.23v1.32h-5.01v-1.32h1.23v-16.85h-1.23v-1.34h5.01v1.34h-1.23Z"/>
  <g>
    <path class="cls-2" d="M167.78,53.14c-3.58,0-6.1-1.96-6.27-4.76h2.63c.14,1.48,1.46,2.6,3.61,2.6,2.02,0,3.13-1.01,3.13-2.27,0-3.41-9.07-1.43-9.07-7.14,0-2.35,2.21-4.28,5.63-4.28s5.63,1.82,5.79,4.81h-2.55c-.11-1.54-1.29-2.66-3.33-2.66-1.88,0-2.99.9-2.99,2.13,0,3.64,8.9,1.65,9.01,7.14,0,2.52-2.21,4.42-5.6,4.42Z"/>
    <path class="cls-2" d="M184.01,33.33c0-.98.76-1.74,1.74-1.74.92,0,1.68.76,1.68,1.74s-.76,1.73-1.68,1.73c-.98,0-1.74-.75-1.74-1.73ZM184.43,37.55h2.55v15.34h-2.55v-15.34Z"/>
    <path class="cls-2" d="M191.88,39.65h-1.99v-2.1h1.99v-3.86h2.55v3.86h4v2.1h-4v9.04c0,1.51.56,2.04,2.13,2.04h1.88v2.15h-2.29c-2.72,0-4.25-1.12-4.25-4.2v-9.04Z"/>
    <path class="cls-2" d="M215.3,37.3c2.85,0,4.81,1.45,5.71,3.05v-2.8h2.57v15.34h-2.57v-2.85c-.92,1.65-2.91,3.11-5.74,3.11-4.09,0-7.25-3.22-7.25-7.98s3.16-7.86,7.28-7.86ZM215.81,39.51c-2.8,0-5.18,2.04-5.18,5.65s2.38,5.74,5.18,5.74,5.21-2.1,5.21-5.71-2.41-5.68-5.21-5.68Z"/>
    <path class="cls-2" d="M241.69,37.3c2.8,0,4.81,1.4,5.71,3.05v-2.8h2.57v15.67c0,4.23-2.83,7.22-7.33,7.22-4.03,0-6.91-2.04-7.42-5.32h2.52c.56,1.85,2.38,3.11,4.9,3.11,2.71,0,4.76-1.74,4.76-5.01v-3.22c-.92,1.65-2.91,3.13-5.71,3.13-4.11,0-7.28-3.22-7.28-7.98s3.16-7.86,7.28-7.86ZM242.2,39.51c-2.8,0-5.18,2.04-5.18,5.65s2.38,5.74,5.18,5.74,5.21-2.1,5.21-5.71-2.41-5.68-5.21-5.68Z"/>
    <path class="cls-2" d="M256.83,52.89h-2.55v-15.34h2.55v2.49c.87-1.71,2.52-2.77,4.95-2.77v2.63h-.67c-2.44,0-4.28,1.09-4.28,4.65v8.34Z"/>
    <path class="cls-2" d="M271.36,53.14c-4.37,0-7.58-3.08-7.58-7.95s3.11-7.89,7.58-7.89,7.36,3.13,7.36,7.33c0,.56-.03,1.01-.08,1.54h-12.26c.2,3.11,2.38,4.81,4.98,4.81,2.29,0,3.75-1.18,4.31-2.83h2.74c-.78,2.8-3.25,4.98-7.05,4.98ZM266.4,44.1h9.68c.03-3-2.21-4.65-4.84-4.65-2.49,0-4.56,1.65-4.84,4.65Z"/>
    <path class="cls-2" d="M288.71,53.14c-4.37,0-7.58-3.08-7.58-7.95s3.11-7.89,7.58-7.89,7.36,3.13,7.36,7.33c0,.56-.03,1.01-.08,1.54h-12.26c.2,3.11,2.38,4.81,4.98,4.81,2.3,0,3.75-1.18,4.31-2.83h2.74c-.78,2.8-3.25,4.98-7.05,4.98ZM283.76,44.1h9.68c.03-3-2.21-4.65-4.84-4.65-2.49,0-4.56,1.65-4.84,4.65Z"/>
    <path class="cls-2" d="M310.65,44.21c0-3.13-1.71-4.73-4.28-4.73s-4.39,1.62-4.39,4.93v8.48h-2.55v-15.34h2.55v2.18c1.01-1.6,2.85-2.46,4.93-2.46,3.55,0,6.27,2.18,6.27,6.58v9.04h-2.52v-8.68Z"/>
    <path class="cls-2" d="M325.37,39.65h-1.99v-2.1h1.99v-3.86h2.55v3.86h4v2.1h-4v9.04c0,1.51.56,2.04,2.13,2.04h1.88v2.15h-2.29c-2.72,0-4.25-1.12-4.25-4.2v-9.04Z"/>
    <path class="cls-2" d="M337.55,52.89h-2.55v-15.34h2.55v2.49c.87-1.71,2.52-2.77,4.95-2.77v2.63h-.67c-2.44,0-4.28,1.09-4.28,4.65v8.34Z"/>
    <path class="cls-2" d="M345.02,33.33c0-.98.76-1.74,1.74-1.74.92,0,1.68.76,1.68,1.74s-.76,1.73-1.68,1.73c-.98,0-1.74-.75-1.74-1.73ZM345.44,37.55h2.55v15.34h-2.55v-15.34Z"/>
    <path class="cls-2" d="M358.65,37.3c2.85,0,4.81,1.45,5.71,3.05v-2.8h2.57v15.34h-2.57v-2.85c-.92,1.65-2.91,3.11-5.74,3.11-4.09,0-7.25-3.22-7.25-7.98s3.16-7.86,7.28-7.86ZM359.15,39.51c-2.8,0-5.18,2.04-5.18,5.65s2.38,5.74,5.18,5.74,5.21-2.1,5.21-5.71-2.41-5.68-5.21-5.68Z"/>
    <path class="cls-2" d="M382.46,44.21c0-3.13-1.71-4.73-4.28-4.73s-4.39,1.62-4.39,4.93v8.48h-2.55v-15.34h2.55v2.18c1.01-1.6,2.85-2.46,4.93-2.46,3.55,0,6.27,2.18,6.27,6.58v9.04h-2.52v-8.68Z"/>
    <path class="cls-2" d="M395.48,37.3c2.8,0,4.81,1.4,5.71,3.05v-2.8h2.57v15.67c0,4.23-2.83,7.22-7.33,7.22-4.03,0-6.91-2.04-7.42-5.32h2.52c.56,1.85,2.38,3.11,4.9,3.11,2.71,0,4.76-1.74,4.76-5.01v-3.22c-.92,1.65-2.91,3.13-5.71,3.13-4.11,0-7.28-3.22-7.28-7.98s3.16-7.86,7.28-7.86ZM395.98,39.51c-2.8,0-5.18,2.04-5.18,5.65s2.38,5.74,5.18,5.74,5.21-2.1,5.21-5.71-2.41-5.68-5.21-5.68Z"/>
    <path class="cls-2" d="M408.07,32.18h2.55v20.71h-2.55v-20.71Z"/>
    <path class="cls-2" d="M421.59,53.14c-4.37,0-7.58-3.08-7.58-7.95s3.11-7.89,7.58-7.89,7.36,3.13,7.36,7.33c0,.56-.03,1.01-.08,1.54h-12.26c.2,3.11,2.38,4.81,4.98,4.81,2.29,0,3.75-1.18,4.31-2.83h2.74c-.78,2.8-3.25,4.98-7.05,4.98ZM416.63,44.1h9.68c.03-3-2.21-4.65-4.84-4.65-2.49,0-4.56,1.65-4.84,4.65Z"/>
    <path class="cls-2" d="M437.29,33.13c3.67,0,6.19,2.21,6.19,5.77,0,4.08-2.83,5.76-6.75,5.76l-.08,2.66h-2.21l-.11-4.42h.81c3.19,0,5.91-.61,5.91-4,0-2.24-1.45-3.64-3.72-3.64s-3.72,1.32-3.72,3.5h-2.41c-.03-3.39,2.44-5.63,6.1-5.63ZM435.52,53.06c-.98,0-1.74-.76-1.74-1.73s.76-1.74,1.74-1.74c.92,0,1.68.76,1.68,1.74s-.76,1.73-1.68,1.73Z"/>
    <path class="cls-2" d="M452.82,33.38h2.83l4.81,9.88,4.81-9.88h2.83l-6.35,12.15v7.36h-2.55v-7.36l-6.38-12.15Z"/>
    <path class="cls-2" d="M477.42,53.14c-4.37,0-7.58-3.08-7.58-7.95s3.11-7.89,7.58-7.89,7.36,3.13,7.36,7.33c0,.56-.03,1.01-.08,1.54h-12.26c.2,3.11,2.38,4.81,4.98,4.81,2.29,0,3.75-1.18,4.31-2.83h2.74c-.78,2.8-3.25,4.98-7.05,4.98ZM472.47,44.1h9.68c.03-3-2.21-4.65-4.84-4.65-2.49,0-4.56,1.65-4.84,4.65Z"/>
    <path class="cls-2" d="M493.57,53.14c-3.58,0-6.1-1.96-6.27-4.76h2.63c.14,1.48,1.46,2.6,3.61,2.6,2.02,0,3.13-1.01,3.13-2.27,0-3.41-9.07-1.43-9.07-7.14,0-2.35,2.21-4.28,5.63-4.28s5.63,1.82,5.79,4.81h-2.55c-.11-1.54-1.29-2.66-3.33-2.66-1.88,0-2.99.9-2.99,2.13,0,3.64,8.9,1.65,9.01,7.14,0,2.52-2.21,4.42-5.6,4.42Z"/>
    <path class="cls-2" d="M502.58,49.36h2.8l-3.13,7.53h-1.71l2.04-7.53Z"/>
  </g>
  <line class="cls-3" x1="513.61" y1="51.81" x2="1047.52" y2="51.81"/>
  <path class="cls-2" d="M1057.96,53.06c-.98,0-1.73-.76-1.73-1.73s.75-1.74,1.73-1.74c.92,0,1.68.76,1.68,1.74s-.76,1.73-1.68,1.73Z"/>
</svg>