<?xml version="1.0" encoding="UTF-8"?>
<svg id="Layer_1" data-name="Layer 1" xmlns="http://www.w3.org/2000/svg" viewBox="0 0 1080 112.82">
  <defs>
    <style>
      .cls-1 {
        fill: #1667b2;
      }

      .cls-2 {
        fill: #25408f;
      }

      .cls-3 {
        fill: #231f20;
      }

      .cls-4 {
        fill: none;
        stroke: #231f20;
      }
    </style>
  </defs>
  <path class="cls-2" d="M24.4,31.29c4.36,0,6.7,2.49,6.7,5.6,0,2.71-1.7,4.16-3.11,4.64v.11c2.06.68,3.48,2.26,3.48,4.98,0,3.48-2.49,5.97-6.82,5.97s-7.41-2.04-7.55-6.7h4.69c.03,1.61.9,2.68,2.69,2.68,1.5,0,2.32-.96,2.32-2.32,0-1.84-1.1-2.57-3.62-2.57h-.9v-3.93h.9c1.64,0,3.22-.4,3.22-2.26,0-1.38-.82-2.15-2.12-2.15-1.55,0-2.12,1.13-2.21,2.26h-4.72c.17-4.07,2.83-6.3,7.04-6.3Z"/>
  <rect class="cls-1" x="61.3" y="3.58" width="79.29" height="79.29"/>
  <path class="cls-3" d="M157.84,33.95v17.02h1.24v1.33h-5.06v-1.33h1.24v-17.02h-1.24v-1.36h5.06v1.36h-1.24Z"/>
  <path class="cls-3" d="M167.56,52.67c-3.62,0-6.16-1.98-6.33-4.81h2.66c.14,1.5,1.47,2.63,3.65,2.63,2.04,0,3.17-1.02,3.17-2.29,0-3.45-9.16-1.44-9.16-7.21,0-2.38,2.23-4.33,5.68-4.33s5.68,1.84,5.85,4.86h-2.57c-.11-1.55-1.3-2.69-3.36-2.69-1.89,0-3.03.9-3.03,2.15,0,3.67,8.99,1.67,9.1,7.21,0,2.55-2.23,4.47-5.66,4.47Z"/>
  <line class="cls-4" x1="182.21" y1="51.33" x2="606.31" y2="51.33"/>
  <path class="cls-3" d="M621.07,32.45c3.7,0,6.25,2.23,6.25,5.83,0,4.13-2.86,5.82-6.82,5.82l-.08,2.69h-2.23l-.11-4.47h.82c3.22,0,5.97-.62,5.97-4.04,0-2.26-1.47-3.68-3.76-3.68s-3.76,1.33-3.76,3.53h-2.43c-.03-3.42,2.46-5.68,6.16-5.68ZM619.29,52.59c-.99,0-1.75-.76-1.75-1.75s.76-1.75,1.75-1.75c.93,0,1.7.76,1.7,1.75s-.76,1.75-1.7,1.75Z"/>
  <line class="cls-4" x1="636.23" y1="51.33" x2="1058.24" y2="51.33"/>
  <path class="cls-3" d="M1068.79,52.59c-.99,0-1.75-.76-1.75-1.75s.76-1.75,1.75-1.75c.93,0,1.7.76,1.7,1.75s-.76,1.75-1.7,1.75Z"/>
  <g>
    <path class="cls-3" d="M228.44,24.29c0-.99.76-1.75,1.75-1.75.93,0,1.7.76,1.7,1.75s-.76,1.75-1.7,1.75c-.99,0-1.75-.76-1.75-1.75ZM228.87,28.56h2.57v15.5h-2.57v-15.5Z"/>
    <path class="cls-3" d="M236.39,30.68h-2.01v-2.12h2.01v-3.9h2.57v3.9h4.04v2.12h-4.04v9.13c0,1.53.57,2.06,2.15,2.06h1.89v2.18h-2.32c-2.74,0-4.3-1.13-4.3-4.24v-9.13Z"/>
    <path class="cls-3" d="M260.06,28.31c2.88,0,4.86,1.47,5.77,3.08v-2.83h2.6v15.5h-2.6v-2.88c-.93,1.67-2.94,3.14-5.8,3.14-4.13,0-7.32-3.25-7.32-8.06s3.19-7.95,7.35-7.95ZM260.57,30.54c-2.83,0-5.23,2.06-5.23,5.71s2.4,5.8,5.23,5.8,5.26-2.12,5.26-5.77-2.43-5.74-5.26-5.74Z"/>
    <path class="cls-3" d="M288.7,28.31c4.19,0,7.35,3.11,7.35,7.95s-3.2,8.06-7.35,8.06c-2.83,0-4.84-1.41-5.8-3.11v2.86h-2.57v-20.92h2.57v8.31c.99-1.72,3.05-3.14,5.8-3.14ZM288.16,30.54c-2.8,0-5.26,2.15-5.26,5.74s2.46,5.77,5.26,5.77,5.26-2.15,5.26-5.8-2.4-5.71-5.26-5.71Z"/>
    <path class="cls-3" d="M299.44,23.13h2.57v20.92h-2.57v-20.92Z"/>
    <path class="cls-3" d="M320.14,44.06h-2.57v-2.29c-.99,1.61-2.88,2.51-4.95,2.51-3.56,0-6.36-2.2-6.36-6.64v-9.08h2.54v8.74c0,3.14,1.72,4.75,4.33,4.75s4.44-1.64,4.44-4.98v-8.51h2.57v15.5Z"/>
    <path class="cls-3" d="M331.2,44.31c-4.41,0-7.66-3.11-7.66-8.03s3.14-7.97,7.66-7.97,7.44,3.17,7.44,7.41c0,.57-.03,1.02-.08,1.55h-12.39c.2,3.14,2.4,4.86,5.03,4.86,2.32,0,3.79-1.19,4.36-2.86h2.77c-.79,2.83-3.28,5.03-7.13,5.03ZM326.19,35.18h9.78c.03-3.03-2.23-4.69-4.89-4.69-2.52,0-4.61,1.67-4.89,4.69Z"/>
  </g>
</svg>