<?xml version="1.0" encoding="UTF-8"?>
<svg id="Layer_1" data-name="Layer 1" xmlns="http://www.w3.org/2000/svg" viewBox="0 0 1080 112.82">
  <defs>
    <style>
      .cls-1 {
        fill: #25408f;
      }

      .cls-2 {
        fill: #231f20;
      }

      .cls-3 {
        fill: #d2232a;
      }

      .cls-4 {
        fill: none;
        stroke: #231f20;
      }
    </style>
  </defs>
  <path class="cls-1" d="M21.91,48.47c4.24-3.5,8.75-6.97,8.75-10.34,0-1.45-.66-2.38-2.08-2.38s-2.22,1.09-2.22,2.98h-4.51c.14-4.84,3.28-6.92,6.92-6.92,4.54,0,6.56,2.65,6.56,6.02,0,4.37-3.91,7.87-7.08,10.31h7.38v3.8h-13.73v-3.47Z"/>
  <path class="cls-3" d="M97.03,79.56c21.17,0,38.33-17.16,38.33-38.33S118.2,2.89,97.03,2.89s-38.33,17.16-38.33,38.33,17.16,38.33,38.33,38.33"/>
  <path class="cls-2" d="M158.07,34.36v16.46h1.2v1.29h-4.89v-1.29h1.2v-16.46h-1.2v-1.31h4.89v1.31h-1.2Z"/>
  <g>
    <path class="cls-2" d="M167.47,52.46c-3.5,0-5.96-1.91-6.12-4.65h2.57c.14,1.45,1.42,2.54,3.53,2.54,1.97,0,3.06-.99,3.06-2.22,0-3.34-8.86-1.39-8.86-6.97,0-2.3,2.16-4.18,5.5-4.18s5.5,1.78,5.66,4.7h-2.49c-.11-1.5-1.26-2.6-3.25-2.6-1.83,0-2.93.87-2.93,2.08,0,3.55,8.7,1.61,8.8,6.97,0,2.46-2.16,4.32-5.47,4.32Z"/>
    <path class="cls-2" d="M183.33,33.11c0-.96.74-1.7,1.7-1.7.9,0,1.64.74,1.64,1.7s-.74,1.69-1.64,1.69c-.96,0-1.7-.74-1.7-1.69ZM183.74,37.23h2.49v14.98h-2.49v-14.98Z"/>
    <path class="cls-2" d="M191.01,39.28h-1.94v-2.05h1.94v-3.77h2.49v3.77h3.91v2.05h-3.91v8.83c0,1.48.55,2,2.08,2h1.83v2.11h-2.24c-2.65,0-4.16-1.09-4.16-4.1v-8.83Z"/>
    <path class="cls-2" d="M213.9,36.99c2.79,0,4.7,1.42,5.58,2.98v-2.73h2.51v14.98h-2.51v-2.79c-.9,1.61-2.84,3.04-5.6,3.04-3.99,0-7.08-3.14-7.08-7.79s3.09-7.68,7.11-7.68ZM214.39,39.15c-2.73,0-5.06,1.99-5.06,5.52s2.32,5.6,5.06,5.6,5.09-2.05,5.09-5.58-2.35-5.55-5.09-5.55Z"/>
    <path class="cls-2" d="M235.99,52.22h-2.49v-14.98h2.49v2.43c.85-1.67,2.46-2.71,4.84-2.71v2.57h-.66c-2.38,0-4.18,1.07-4.18,4.54v8.15Z"/>
    <path class="cls-2" d="M250.18,52.46c-4.26,0-7.41-3.01-7.41-7.77s3.03-7.71,7.41-7.71,7.19,3.06,7.19,7.16c0,.55-.03.98-.08,1.5h-11.98c.19,3.04,2.32,4.7,4.87,4.7,2.24,0,3.66-1.15,4.21-2.76h2.68c-.77,2.73-3.17,4.87-6.89,4.87ZM245.34,43.63h9.46c.03-2.93-2.16-4.54-4.73-4.54-2.43,0-4.46,1.61-4.73,4.54Z"/>
    <path class="cls-2" d="M266.86,36.99c2.35,0,4.51,1.2,5.55,2.92v-7.93h2.51v20.23h-2.51v-2.82c-.9,1.67-2.84,3.06-5.58,3.06-4.02,0-7.11-3.14-7.11-7.79s3.09-7.68,7.14-7.68ZM267.32,39.15c-2.73,0-5.06,1.99-5.06,5.52s2.32,5.6,5.06,5.6,5.09-2.05,5.09-5.58-2.35-5.55-5.09-5.55Z"/>
    <path class="cls-2" d="M291.74,52.46c-3.5,0-5.96-1.91-6.12-4.65h2.57c.14,1.45,1.42,2.54,3.53,2.54,1.97,0,3.06-.99,3.06-2.22,0-3.34-8.86-1.39-8.86-6.97,0-2.3,2.16-4.18,5.5-4.18s5.5,1.78,5.66,4.7h-2.49c-.11-1.5-1.26-2.6-3.25-2.6-1.83,0-2.93.87-2.93,2.08,0,3.55,8.7,1.61,8.8,6.97,0,2.46-2.16,4.32-5.47,4.32Z"/>
    <path class="cls-2" d="M314.21,59.27h-2.52v-9.87c-.85,1.53-2.84,3.01-5.63,3.01-3.96,0-7.06-3.14-7.06-7.79s3.09-7.68,7.14-7.68c2.73,0,4.7,1.42,5.55,2.98v-2.73h2.52v17.85l1.18-2h2.51l-3.69,6.24ZM311.7,44.64c0-3.47-2.35-5.55-5.09-5.55s-5.06,2-5.06,5.52,2.32,5.6,5.06,5.6,5.09-2.05,5.09-5.58Z"/>
    <path class="cls-2" d="M332.48,52.22h-2.49v-2.21c-.96,1.56-2.79,2.43-4.78,2.43-3.45,0-6.15-2.13-6.15-6.43v-8.78h2.46v8.45c0,3.04,1.67,4.59,4.18,4.59s4.29-1.59,4.29-4.81v-8.23h2.49v14.98Z"/>
    <path class="cls-2" d="M342.86,36.99c2.79,0,4.7,1.42,5.58,2.98v-2.73h2.51v14.98h-2.51v-2.79c-.9,1.61-2.84,3.04-5.6,3.04-3.99,0-7.08-3.14-7.08-7.79s3.09-7.68,7.11-7.68ZM343.36,39.15c-2.73,0-5.06,1.99-5.06,5.52s2.32,5.6,5.06,5.6,5.09-2.05,5.09-5.58-2.35-5.55-5.09-5.55Z"/>
    <path class="cls-2" d="M357.66,52.22h-2.49v-14.98h2.49v2.43c.85-1.67,2.46-2.71,4.84-2.71v2.57h-.66c-2.38,0-4.18,1.07-4.18,4.54v8.15Z"/>
    <path class="cls-2" d="M371.84,52.46c-4.26,0-7.41-3.01-7.41-7.77s3.03-7.71,7.41-7.71,7.19,3.06,7.19,7.16c0,.55-.03.98-.08,1.5h-11.98c.19,3.04,2.32,4.7,4.87,4.7,2.24,0,3.66-1.15,4.21-2.76h2.68c-.77,2.73-3.17,4.87-6.89,4.87ZM367.01,43.63h9.46c.03-2.93-2.16-4.54-4.73-4.54-2.43,0-4.46,1.61-4.73,4.54Z"/>
    <path class="cls-2" d="M387.18,32.91c3.58,0,6.04,2.16,6.04,5.63,0,3.99-2.76,5.63-6.59,5.63l-.08,2.6h-2.16l-.11-4.32h.79c3.12,0,5.77-.6,5.77-3.91,0-2.19-1.42-3.56-3.64-3.56s-3.64,1.29-3.64,3.42h-2.35c-.03-3.31,2.38-5.5,5.96-5.5ZM385.46,52.38c-.96,0-1.7-.74-1.7-1.69s.74-1.7,1.7-1.7c.9,0,1.64.74,1.64,1.7s-.74,1.69-1.64,1.69Z"/>
    <path class="cls-2" d="M418.93,33.13v19.08h-2.49l-10.01-15.17v15.17h-2.49v-19.08h2.49l10.01,15.15v-15.15h2.49Z"/>
    <path class="cls-2" d="M429.7,52.46c-4.24,0-7.46-3.01-7.46-7.77s3.34-7.71,7.57-7.71,7.57,2.98,7.57,7.71-3.42,7.77-7.68,7.77ZM429.7,50.28c2.6,0,5.14-1.78,5.14-5.58s-2.49-5.55-5.06-5.55-5,1.78-5,5.55,2.32,5.58,4.92,5.58Z"/>
    <path class="cls-2" d="M440.5,48.77h2.73l-3.06,7.35h-1.67l2-7.35Z"/>
  </g>
  <line class="cls-4" x1="451.27" y1="51.17" x2="1029.31" y2="51.17"/>
  <path class="cls-2" d="M1039.51,52.38c-.96,0-1.69-.74-1.69-1.69s.74-1.7,1.69-1.7c.9,0,1.64.74,1.64,1.7s-.74,1.69-1.64,1.69Z"/>
</svg>